<svg width="52.000000" height="52.000000" viewBox="0 0 52 52" fill="none" xmlns="http://www.w3.org/2000/svg" xmlns:xlink="http://www.w3.org/1999/xlink">
	<desc>
			Created with Pixso.
	</desc>
	<defs/>
	<path id="Форма 1" d="M34.54 1.42C28.86 -0.74 15.86 -1.9 6.11 9.11C-3.64 20.12 0.42 33.66 3.67 39.06C6.24 42.7 13.58 50.23 22.36 51.2L22.36 37.44C15.86 36.15 13.69 30.42 13.42 27.73C11.47 16.72 20.6 13.16 25.61 12.75L34.54 1.42ZM50.79 0.61C42.94 1.01 26.99 6.52 26.01 25.3L38.2 25.3C38.88 21.12 42.43 12.75 51.2 12.75L51.2 0.61L50.79 0.61ZM26.01 37.44L26.01 51.2C44.54 50.23 51.61 34.2 51.61 26.11L39.42 26.11C38.61 30.69 34.14 37.44 26.01 37.44Z" fill="#FFFFFF" fill-opacity="1.000000" fill-rule="evenodd"/>
</svg>
