<svg width="59" height="59" viewBox="0 0 59 59" fill="none" xmlns="http://www.w3.org/2000/svg">
<path d="M1 27.5C4 0.175629 26.9991 -0.499932 39.3031 1.97364L33.8311 8.80614L28.8151 15.1148C17.1415 15.4792 14.9974 24.6803 15.1494 29.2353C15.1494 38.7098 20.6071 43.4241 25.6372 43.3559V57.9319C4.4788 54.6523 0.500173 43.1756 1 27.5Z" fill="white"/>
<path d="M57.5574 15.1148V1.44979C49.3351 1.44979 42.8133 4.6383 39.7732 7.3713C31.5904 14.7276 29.1189 23.7694 29.2711 28.3244H43.4214C44.8806 17.3924 53.4534 14.963 57.5574 15.1148Z" fill="white"/>
<path d="M29.2711 58.0002L29.2854 43.3559C38.8471 43.3559 43.4214 35.2251 43.4214 30.1463L57.9991 29.7591C57.9991 36.1361 55.4135 41.5439 52.5271 46.1572C45.6871 57.0892 34.2871 57.5447 29.2711 58.0002Z" fill="white"/>
<path d="M1 27.5C4 0.175629 26.9991 -0.499932 39.3031 1.97364L33.8311 8.80614L28.8151 15.1148C17.1415 15.4792 14.9974 24.6803 15.1494 29.2353C15.1494 38.7098 20.6071 43.4241 25.6372 43.3559V57.9319C4.4788 54.6523 0.500173 43.1756 1 27.5Z" stroke="white"/>
<path d="M57.5574 15.1148V1.44979C49.3351 1.44979 42.8133 4.6383 39.7732 7.3713C31.5904 14.7276 29.1189 23.7694 29.2711 28.3244H43.4214C44.8806 17.3924 53.4534 14.963 57.5574 15.1148Z" stroke="white"/>
<path d="M29.2711 58.0002L29.2854 43.3559C38.8471 43.3559 43.4214 35.2251 43.4214 30.1463L57.9991 29.7591C57.9991 36.1361 55.4135 41.5439 52.5271 46.1572C45.6871 57.0892 34.2871 57.5447 29.2711 58.0002Z" stroke="white"/>
</svg>
