<svg width="63" height="42" viewBox="0 0 63 42" fill="none" xmlns="http://www.w3.org/2000/svg">
<path d="M41.3166 20.6583C41.3166 32.0676 32.0676 41.3166 20.6583 41.3166C9.24904 41.3166 0 32.0676 0 20.6583C0 9.24904 9.24904 0 20.6583 0C32.0676 0 41.3166 9.24904 41.3166 20.6583ZM10.2101 20.6583C10.2101 26.4287 14.8879 31.1065 20.6583 31.1065C26.4287 31.1065 31.1065 26.4287 31.1065 20.6583C31.1065 14.8879 26.4287 10.2101 20.6583 10.2101C14.8879 10.2101 10.2101 14.8879 10.2101 20.6583Z" fill="#AA37F5"/>
<path d="M41.3166 20.6583C41.3166 23.3712 40.7823 26.0575 39.7441 28.5639C38.7059 31.0703 37.1842 33.3476 35.2659 35.2659C33.3476 37.1842 31.0703 38.7059 28.5639 39.7441C26.0575 40.7823 23.3712 41.3166 20.6583 41.3166V31.1065C22.0304 31.1065 23.389 30.8363 24.6567 30.3112C25.9243 29.7861 27.0761 29.0165 28.0463 28.0463C29.0165 27.0761 29.7861 25.9243 30.3112 24.6567C30.8363 23.389 31.1065 22.0304 31.1065 20.6583H41.3166Z" fill="white"/>
<path d="M21.0301 20.6583C21.0301 17.9455 21.5644 15.2591 22.6026 12.7527C23.6408 10.2464 25.1624 7.96901 27.0807 6.05071C28.999 4.13241 31.2764 2.61073 33.7828 1.57255C36.2892 0.534376 38.9755 3.22891e-05 41.6884 3.25263e-05L41.6884 10.2101C40.3163 10.2101 38.9576 10.4804 37.69 11.0054C36.4224 11.5305 35.2706 12.3001 34.3004 13.2703C33.3301 14.2405 32.5605 15.3923 32.0355 16.66C31.5104 17.9276 31.2401 19.2863 31.2401 20.6583L21.0301 20.6583Z" fill="white"/>
</svg>
